<svg id="Layer_1" data-name="Layer 1" xmlns="http://www.w3.org/2000/svg" xmlns:xlink="http://www.w3.org/1999/xlink" viewBox="0 0 40 40"><defs><style>.cls-1,.cls-11,.cls-4,.cls-6{fill:none;}.cls-2{clip-path:url(#clip-path);}.cls-3{fill:#231f20;}.cls-4{stroke:#231f20;}.cls-11,.cls-4,.cls-6{stroke-miterlimit:10;}.cls-4,.cls-6{stroke-width:0.29px;}.cls-5{fill:#00aeef;}.cls-11,.cls-6{stroke:#414042;}.cls-7{fill:#414042;}.cls-8{fill:#b3e4fa;}.cls-9{fill:#009444;}.cls-10{fill:#2bb673;}.cls-11{stroke-width:0.06px;}</style><clipPath id="clip-path"><rect class="cls-1" width="41.01" height="41.01"/></clipPath></defs><title>logo5sm2</title><g class="cls-2"><rect class="cls-3" x="17.47" y="16.38" width="0.69" height="0.69"/><rect class="cls-4" x="17.47" y="16.38" width="0.69" height="0.69"/><polygon class="cls-5" points="9.64 20.41 9.64 5.79 14.1 2.89 16.48 4.21 16.48 20.41 9.64 20.41"/><polygon class="cls-6" points="9.64 20.41 9.64 5.79 14.1 2.89 16.48 4.21 16.48 20.41 9.64 20.41"/><polygon class="cls-5" points="13.65 20.41 13.65 14.06 17.53 11.91 21.71 13.95 21.98 20.41 13.65 20.41"/><polygon class="cls-6" points="13.65 20.41 13.65 14.06 17.53 11.91 21.71 13.95 21.98 20.41 13.65 20.41"/><rect class="cls-7" x="11.02" y="6.96" width="0.69" height="0.69"/><rect class="cls-6" x="11.02" y="6.96" width="0.69" height="0.69"/><rect class="cls-7" x="13.26" y="5.22" width="0.69" height="0.69"/><rect class="cls-6" x="13.26" y="5.22" width="0.69" height="0.69"/><rect class="cls-7" x="13.48" y="8.86" width="0.69" height="0.69"/><rect class="cls-6" x="13.48" y="8.86" width="0.69" height="0.69"/><rect class="cls-7" x="11.01" y="8.86" width="0.69" height="0.69"/><rect class="cls-6" x="11.01" y="8.86" width="0.69" height="0.69"/><rect class="cls-7" x="11.02" y="10.67" width="0.69" height="0.69"/><rect class="cls-6" x="11.02" y="10.67" width="0.69" height="0.69"/><rect class="cls-7" x="16.63" y="15.82" width="0.69" height="0.69"/><rect class="cls-6" x="16.63" y="15.82" width="0.69" height="0.69"/><rect class="cls-7" x="18.32" y="15.82" width="0.69" height="0.69"/><rect class="cls-6" x="18.32" y="15.82" width="0.69" height="0.69"/><rect class="cls-7" x="16.63" y="17.36" width="0.69" height="0.69"/><rect class="cls-6" x="16.63" y="17.36" width="0.69" height="0.69"/><rect class="cls-7" x="18.32" y="17.36" width="0.69" height="0.69"/><rect class="cls-6" x="18.32" y="17.36" width="0.69" height="0.69"/><g class="cls-2"><path class="cls-8" d="M15.33,4l.92.44s.05,8.06,0,8-1,.51-1,.51Z"/><path class="cls-8" d="M20.47,13.69l.92.44s.33,6.09.29,6a5.91,5.91,0,0,0-1.33,0Z"/></g><path class="cls-7" d="M11,23.15H9.11V28H7.86V23.15H6v-1.1h5Z"/><path class="cls-7" d="M11.64,22.11l.44-.06.49-.05L13,22h.43a5.14,5.14,0,0,1,.88.08,2.39,2.39,0,0,1,.78.26,1.52,1.52,0,0,1,.56.51,1.48,1.48,0,0,1,.21.81,1.9,1.9,0,0,1-.36,1.2,1.78,1.78,0,0,1-1,.64l.45.26L16.47,28H15l-1.47-2.29-.66-.1V28H11.64Zm1.92,1h-.38a1.85,1.85,0,0,0-.29,0v1.63h.53a1.45,1.45,0,0,0,.84-.2.77.77,0,0,0,.31-.7.68.68,0,0,0-.26-.57A1.26,1.26,0,0,0,13.56,23.07Z"/><path class="cls-7" d="M20,26.71H18L17.5,28H16.25l2.32-6h.92l2.32,6H20.48Zm-1.65-1h1.35l-.45-1.23L19,23.55h0l-.2.95Z"/><path class="cls-7" d="M25.13,26.35a.47.47,0,0,0-.22-.42,3.37,3.37,0,0,0-.54-.28l-.71-.25a2.84,2.84,0,0,1-.7-.34,2,2,0,0,1-.55-.53,1.42,1.42,0,0,1-.22-.84,1.71,1.71,0,0,1,.16-.77,1.4,1.4,0,0,1,.44-.55,2,2,0,0,1,.68-.32,3.08,3.08,0,0,1,.88-.11,5.9,5.9,0,0,1,1.06.09,3,3,0,0,1,.83.28l-.4,1.05-.26-.13a2.22,2.22,0,0,0-.36-.11l-.43-.07a3.44,3.44,0,0,0-.46,0,1.24,1.24,0,0,0-.66.15.45.45,0,0,0-.23.41.47.47,0,0,0,.22.41,2.56,2.56,0,0,0,.55.29c.21.09.45.18.7.26a3.32,3.32,0,0,1,.71.34,1.91,1.91,0,0,1,.54.52,1.35,1.35,0,0,1,.22.8,1.87,1.87,0,0,1-.17.85,1.57,1.57,0,0,1-.47.58A2.2,2.2,0,0,1,25,28a4.06,4.06,0,0,1-.95.11c-.23,0-.45,0-.66,0L22.82,28l-.46-.12a1.93,1.93,0,0,1-.31-.13l.41-1.05.26.11a5,5,0,0,0,.8.2A3.73,3.73,0,0,0,24,27a1.75,1.75,0,0,0,.85-.17A.52.52,0,0,0,25.13,26.35Z"/><path class="cls-7" d="M30.83,25.53H28.47V28H27.22V22.05h1.25v2.38h2.36V22.05h1.25V28H30.83Z"/><path class="cls-9" d="M13.53,30.28a1.59,1.59,0,0,1-.06.43,1.5,1.5,0,0,1-.2.4,1.12,1.12,0,0,1-.36.32,1.5,1.5,0,0,1-.53.2v.05a2.27,2.27,0,0,1,.53.12,1.37,1.37,0,0,1,.42.29,1.35,1.35,0,0,1,.29.44,1.57,1.57,0,0,1,.11.6,1.47,1.47,0,0,1-.22.8,1.7,1.7,0,0,1-.56.54,2.72,2.72,0,0,1-.8.31,4,4,0,0,1-.91.1h-.93l-.58,0a4,4,0,0,1-.53-.08V28.92l.41-.05.48,0,.53,0h.54a6.11,6.11,0,0,1,.86.06,2.59,2.59,0,0,1,.76.23,1.41,1.41,0,0,1,.54.45A1.22,1.22,0,0,1,13.53,30.28Zm-2.7,1.07h.3l.29,0A1.88,1.88,0,0,0,12,31a.62.62,0,0,0,.24-.52.63.63,0,0,0-.09-.35.58.58,0,0,0-.25-.21,1,1,0,0,0-.35-.1,2.6,2.6,0,0,0-.4,0h-.44l-.33,0v1.51Zm.39,2.52a2.31,2.31,0,0,0,.46,0,1,1,0,0,0,.38-.14.75.75,0,0,0,.26-.24.78.78,0,0,0,0-.8A.67.67,0,0,0,12,32.4a1.43,1.43,0,0,0-.42-.1l-.47,0h-.7v1.54l.15,0h.67Z"/><path class="cls-9" d="M17.8,33.54h-2l-.48,1.26H14.07l2.32-6h.92l2.32,6H18.3Zm-1.65-1H17.5l-.45-1.24-.21-.93h0l-.2.94Z"/><path class="cls-9" d="M24.25,34.54a1.89,1.89,0,0,1-.73.29,5.86,5.86,0,0,1-.94.08,3.6,3.6,0,0,1-1.09-.16,2.62,2.62,0,0,1-.92-.55,2.51,2.51,0,0,1-.63-1,3.71,3.71,0,0,1-.24-1.41A3.44,3.44,0,0,1,20,30.39a2.59,2.59,0,0,1,1.63-1.47,3.6,3.6,0,0,1,1-.16,5.89,5.89,0,0,1,.93.07,4.21,4.21,0,0,1,.62.16L23.92,30a2.27,2.27,0,0,0-.5-.14,6.68,6.68,0,0,0-.71,0A1.85,1.85,0,0,0,22,30a1.54,1.54,0,0,0-.53.37,1.61,1.61,0,0,0-.34.62,3.23,3.23,0,0,0,0,1.67,2.1,2.1,0,0,0,.33.63,1.51,1.51,0,0,0,.56.4,2,2,0,0,0,.79.15,2.81,2.81,0,0,0,.7-.08,2.48,2.48,0,0,0,.5-.2Z"/><path class="cls-9" d="M26.62,32.29h-.33V34.8H25V28.88h1.25v2.6l.29-.12,1.78-2.48h1.43l-1.88,2.48-.49.32.51.34,2.14,2.78H28.53Z"/><g class="cls-2"><line class="cls-6" x1="4.48" y1="20.48" x2="34.57" y2="20.48"/><path class="cls-9" d="M6.16,16.7C4.44,15.24,6,10.19,7.86,9.9c1.63-.25,4.59,2.91,3.5,5.3-.87,1.92-4,2.54-5.2,1.5"/><path class="cls-6" d="M6.16,16.7C4.44,15.24,6,10.19,7.86,9.9c1.63-.25,4.59,2.91,3.5,5.3C10.49,17.12,7.39,17.74,6.16,16.7Z"/><path class="cls-10" d="M6.57,14.84l1.87.68"/><path class="cls-6" d="M6.57,14.84l1.87.68"/><polyline class="cls-6" points="8.44 20.54 8.44 15.51 8.44 12.64"/><path class="cls-10" d="M9.67,13.72,8.44,15"/><path class="cls-6" d="M9.67,13.72,8.44,15"/><path class="cls-9" d="M22.2,11.9h6.48l-.92,8.55-4.26,0c-.43-2.86-.87-5.72-1.3-8.58"/><path class="cls-6" d="M22.2,11.9h6.48l-.92,8.55-4.26,0C23.07,17.62,22.63,14.76,22.2,11.9Z"/><path class="cls-7" d="M26.14,16.08v.22s0,0,0,0h.29a.05.05,0,0,0,0,0L26,15.43s0,0,0,0l.76-.47s0,0,0,0l.47.88.15.28s0,0,0,.05c-.2.39-.41.78-.62,1.16,0,0,0,0-.06,0h-.58s0,0,0,0v.19a.06.06,0,0,1,0,0l-.06-.12-.33-.61a.06.06,0,0,1,0-.06l.38-.72h0"/><path class="cls-11" d="M26.14,16.08v.22s0,0,0,0h.29a.05.05,0,0,0,0,0L26,15.43s0,0,0,0l.76-.47s0,0,0,0l.47.88.15.28s0,0,0,.05c-.2.39-.41.78-.62,1.16,0,0,0,0-.06,0h-.58s0,0,0,0v.19a.06.06,0,0,1,0,0l-.06-.12-.33-.61a.06.06,0,0,1,0-.06l.38-.72h0Z"/><path class="cls-7" d="M23.62,15.38a.75.75,0,0,1,.15,0h.63s0,0,.05,0c.14.24.27.48.4.72,0,0,0,0,0,0l-.1-.06s0,0,0,0-.06.16-.12.27h.87a0,0,0,0,1,0,0v.95a0,0,0,0,1,0,0H24.18s0,0,0,0l-.46-.86-.17-.31a0,0,0,0,1,0-.05l.3-.54s0,0,0-.06l-.16-.1h0"/><path class="cls-11" d="M23.62,15.38a.75.75,0,0,1,.15,0h.63s0,0,.05,0c.14.24.27.48.4.72,0,0,0,0,0,0l-.1-.06s0,0,0,0-.06.16-.12.27h.87a0,0,0,0,1,0,0v.95a0,0,0,0,1,0,0H24.18s0,0,0,0l-.46-.86-.17-.31a0,0,0,0,1,0-.05l.3-.54s0,0,0-.06l-.16-.1Z"/><path class="cls-7" d="M25.47,14.46c-.09.17-.18.33-.26.5l-.23.41s0,0,0,0l-.76-.46s0,0,0,0l.63-1.18,0,0h1.27s0,0,0,0l.29.54s0,0,0,0l.18-.11s0,0,0,0l-.39.69s0,0,0,0h-.76s0,0,0,0l.16-.1s0,0,0-.07l-.13-.25,0,0"/><path class="cls-11" d="M25.47,14.46c-.09.17-.18.33-.26.5l-.23.41s0,0,0,0l-.76-.46s0,0,0,0l.63-1.18,0,0h1.27s0,0,0,0l.29.54s0,0,0,0l.18-.11s0,0,0,0l-.39.69s0,0,0,0h-.76s0,0,0,0l.16-.1s0,0,0-.07l-.13-.25Z"/><path class="cls-5" d="M27.86,11.9h6.48l-.92,8.55-4.27,0L27.86,11.9"/><path class="cls-6" d="M27.86,11.9h6.48l-.92,8.55-4.27,0Z"/><path class="cls-7" d="M31.8,16.08a1.7,1.7,0,0,1,0,.22,0,0,0,0,0,0,0h.29s0,0,0,0c-.15-.29-.3-.58-.46-.86,0,0,0,0,0,0l.77-.47s0,0,0,0l.48.88.15.28a0,0,0,0,1,0,.05l-.63,1.16a.05.05,0,0,1-.06,0h-.57s0,0,0,0a1.21,1.21,0,0,1,0,.19s0,0,0,0l-.07-.12-.32-.61a.06.06,0,0,1,0-.06c.12-.24.25-.48.38-.72h0"/><path class="cls-11" d="M31.8,16.08a1.7,1.7,0,0,1,0,.22,0,0,0,0,0,0,0h.29s0,0,0,0c-.15-.29-.3-.58-.46-.86,0,0,0,0,0,0l.77-.47s0,0,0,0l.48.88.15.28a0,0,0,0,1,0,.05l-.63,1.16a.05.05,0,0,1-.06,0h-.57s0,0,0,0a1.21,1.21,0,0,1,0,.19s0,0,0,0l-.07-.12-.32-.61a.06.06,0,0,1,0-.06c.12-.24.25-.48.38-.72h0Z"/><path class="cls-7" d="M29.27,15.38a.75.75,0,0,1,.15,0h.64a.05.05,0,0,1,.05,0c.13.24.26.48.4.72,0,0,0,0,0,0l-.1-.06s0,0,0,0-.06.16-.12.27h.87s0,0,0,0v.95s0,0,0,0H29.84s0,0,0,0c-.16-.29-.31-.58-.47-.86,0-.11-.11-.21-.16-.31a0,0,0,0,1,0-.05c.1-.18.2-.36.29-.54s0,0,0-.06l-.16-.1h0"/><path class="cls-11" d="M29.27,15.38a.75.75,0,0,1,.15,0h.64a.05.05,0,0,1,.05,0c.13.24.26.48.4.72,0,0,0,0,0,0l-.1-.06s0,0,0,0-.06.16-.12.27h.87s0,0,0,0v.95s0,0,0,0H29.84s0,0,0,0c-.16-.29-.31-.58-.47-.86,0-.11-.11-.21-.16-.31a0,0,0,0,1,0-.05c.1-.18.2-.36.29-.54s0,0,0-.06l-.16-.1Z"/><path class="cls-7" d="M31.13,14.46l-.27.5-.22.41s0,0-.05,0l-.75-.46s0,0,0,0c.22-.39.43-.79.64-1.18l0,0h1.26s0,0,0,0l.3.54s0,0,0,0l.18-.11s0,0,0,0c-.12.23-.25.46-.38.69a0,0,0,0,1-.05,0h-.75s0,0,0,0l.17-.1s0,0,0-.07-.09-.17-.13-.25l0,0"/><path class="cls-11" d="M31.13,14.46l-.27.5-.22.41s0,0-.05,0l-.75-.46s0,0,0,0c.22-.39.43-.79.64-1.18l0,0h1.26s0,0,0,0l.3.54s0,0,0,0l.18-.11s0,0,0,0c-.12.23-.25.46-.38.69a0,0,0,0,1-.05,0h-.75s0,0,0,0l.17-.1s0,0,0-.07-.09-.17-.13-.25Z"/></g></g></svg>