<svg xmlns="http://www.w3.org/2000/svg" width="300" height="135" viewBox="0 0 300 135">
    <g fill="none" fill-rule="evenodd">
        <rect width="300" height="135"  rx="8"/>
        <path fill="#ffffff" d="M69 105V70h5.777c3.35 0 5.8.206 7.351.62 2.2.554 3.951 1.585 5.251 3.09 1.3 1.508 1.95 3.285 1.95 5.331 0 1.333-.295 2.541-.886 3.628-.592 1.086-1.554 2.107-2.885 3.059 2.232.998 3.863 2.248 4.896 3.748C91.486 90.973 92 92.746 92 94.792c0 1.968-.53 3.759-1.597 5.378-1.068 1.619-2.442 2.827-4.126 3.628-1.685.801-4.01 1.202-6.977 1.202H69zm6.993-28.646v7.375h1.53c1.703 0 2.97-.34 3.799-1.023.825-.682 1.24-1.611 1.24-2.785 0-1.094-.393-1.963-1.179-2.605-.786-.643-1.981-.962-3.584-.962h-1.806zm0 13.323v8.97h1.753c2.905 0 4.862-.349 5.873-1.048 1.01-.696 1.515-1.713 1.515-3.044 0-1.509-.592-2.697-1.778-3.569-1.186-.873-3.156-1.309-5.911-1.309h-1.452zM98 79h6.354v9.728l8.75-9.728h7.757l-11.277 12.668L121 105h-8.426l-7.552-9.185-.668.821V105H98V79zm24 0h6.774l6.862 16.538L143.208 79H150l-16.545 36h-6.845l5.432-11.61L122 79zm55 5.07l-5.287 3.06c-.994-1.094-1.972-1.851-2.943-2.278-.97-.423-2.107-.635-3.411-.635-2.374 0-4.296.746-5.76 2.237-1.47 1.492-2.204 3.4-2.204 5.732 0 2.263.705 4.113 2.121 5.546 1.411 1.434 3.267 2.15 5.562 2.15 2.843 0 5.054-1.02 6.635-3.06l5.009 3.608c-2.715 3.713-6.545 5.57-11.488 5.57-4.45 0-7.936-1.385-10.456-4.16-2.52-2.774-3.778-6.021-3.778-9.742 0-2.578.612-4.951 1.839-7.122 1.223-2.168 2.931-3.876 5.125-5.115 2.195-1.24 4.648-1.861 7.362-1.861 2.514 0 4.768.528 6.767 1.579 2.002 1.053 3.636 2.55 4.907 4.49zm5 20.93V69h5.524c3.204 0 5.55.212 7.031.637 2.103.57 3.779 1.631 5.022 3.178 1.244 1.552 1.864 3.38 1.864 5.485 0 1.37-.28 2.613-.846 3.73-.565 1.118-1.484 2.168-2.758 3.147 2.133 1.027 3.695 2.312 4.682 3.856.989 1.54 1.481 3.363 1.481 5.468 0 2.023-.509 3.866-1.533 5.531-1.02 1.665-2.335 2.908-3.944 3.732-1.611.824-3.833 1.236-6.67 1.236H182zm6.69-29.465v7.586h1.46c1.631 0 2.841-.35 3.633-1.052.792-.702 1.188-1.657 1.188-2.864 0-1.126-.377-2.02-1.128-2.68-.751-.66-1.893-.99-3.429-.99h-1.724zm0 13.704v9.226h1.675c2.779 0 4.651-.358 5.616-1.077.966-.716 1.449-1.762 1.449-3.131 0-1.552-.564-2.774-1.7-3.671-1.133-.898-3.019-1.347-5.652-1.347h-1.388zM213.495 105H210V79h6.412v15.27L229.842 79H233v26h-6.414V90.04L213.495 105zM263 105h-6.544l-6.409-16.398L243.521 105H237l10.925-26h4.142L263 105zm28 0h-6.545l-6.408-16.398L271.522 105H265l10.924-26h4.141L291 105z"/>
    </g>
</svg>
