<?xml version="1.0" encoding="utf-8"?>
<!-- Generator: Adobe Illustrator 25.2.0, SVG Export Plug-In . SVG Version: 6.00 Build 0)  -->
<svg version="1.1" id="Layer_1" xmlns="http://www.w3.org/2000/svg" xmlns:xlink="http://www.w3.org/1999/xlink" x="0px" y="0px"
	 viewBox="0 0 512 512" style="enable-background:new 0 0 512 512;" xml:space="preserve">
<style type="text/css">
	.st0{fill:#b7a1d1;}
	.st1{fill:#4d148c;}
</style>
<path class="st0" d="M339.4,138.1l4.4-29.4L77.1,276l39.3,2L339.4,138.1z"/>
<path class="st0" d="M246.5,303.7c-1.1-2.2-3.3-3.6-5.7-3.7l-3.8-0.2l60.2,117.8l1.7-11.4L246.5,303.7z"/>
<path class="st1" d="M333.8,253.7l23.5-155.4c0.6-3.8-2-7.3-5.9-7.8c-1.6-0.2-3.3,0.2-4.7,1 M48.5,278.5c-3.3,2.1-4.4,6.4-2.4,9.6
	c1.2,1.9,3.2,3.1,5.5,3.2l165.6,8.3L292,446c1.7,3.4,5.9,4.7,9.4,2.9c2-1.1,3.4-3,3.8-5.3l62.5-370.5 M227.9,289.6
	c-1.1-2.2-3.3-3.6-5.7-3.7l-147.7-7.4l266.7-167.2l-46.7,308.8L227.9,289.6z"/>
</svg>
