<?xml version="1.0" encoding="utf-8"?>
<!-- Generator: Adobe Illustrator 25.2.0, SVG Export Plug-In . SVG Version: 6.00 Build 0)  -->
<svg version="1.1" id="Layer_1" xmlns="http://www.w3.org/2000/svg" xmlns:xlink="http://www.w3.org/1999/xlink" x="0px" y="0px"
	 viewBox="0 0 445 445" style="enable-background:new 0 0 445 445;" xml:space="preserve">
<style type="text/css">
	.st0{fill:#2ECA8B;}
	.st1{fill:#FFFFFF;}
	.st2{fill:#D4E1F4;}
	.st3{fill:#2F55D4;}
</style>
<path class="st0" d="M171,218.4c0,0,57.7-72.2,133.1-72.2c73.2,0,127.6,72.2,127.6,72.2s-43,78.1-130.4,78.1
	C222.5,296.4,171,218.4,171,218.4z"/>
<path class="st1" d="M197.2,219.3c0,0,47.3-57.1,109.1-57.1c60,0,104.6,57.1,104.6,57.1s-35.3,61.7-106.9,61.7
	C239.5,281.1,197.2,219.3,197.2,219.3z"/>
<path class="st2" d="M103.5,12h-20c-14.4,0-26.1,11.7-26.1,26.1v22h20v-22C77.4,23.7,89.1,12,103.5,12z"/>
<path class="st2" d="M77.4,406.9v-46.3h-20v46.3c0,14.4,11.7,26.1,26.1,26.1h20C89.1,433,77.4,421.3,77.4,406.9z"/>
<path class="st2" d="M57.4,72.1h20v276.6h-20V72.1z"/>
<path class="st3" d="M271.1,0H83.5c-21,0-38,17-38.1,38.1v368.9c0,21,17,38,38.1,38.1h187.6c21,0,38-17.1,38.1-38.1v-84.8
	c0-3.3-2.7-6-6-6c-3.3,0-6,2.7-6,6v26.4H57.4V72.1h239.7v42.5c0,3.3,2.7,6,6,6c3.3,0,6-2.7,6-6V38.1C309.1,17,292.1,0,271.1,0z
	 M297.2,360.6v46.3c0,14.4-11.7,26.1-26.1,26.1H83.5c-14.4,0-26.1-11.7-26.1-26.1v-46.3H297.2z M57.4,60.1v-22
	C57.4,23.7,69.1,12,83.5,12h187.6c14.4,0,26.1,11.7,26.1,26.1v22H57.4z"/>
<path class="st3" d="M149,403.1h56.6c3.3,0,6-2.7,6-6c0-3.3-2.7-6-6-6H149c-3.3,0-6,2.7-6,6C143,400.4,145.7,403.1,149,403.1z"/>
<g>
	<path class="st0" d="M307.6,109.8 M304,122"/>
	<path class="st0" d="M280.2,211.7c-2.4-2.3-6.1-2.2-8.4,0.1c-2.3,2.3-2.3,6-0.1,8.4l20.4,20.4c2.3,2.3,6.1,2.3,8.5,0l35.8-35.8
		c1.5-1.5,2.1-3.7,1.6-5.8c-0.6-2.1-2.2-3.7-4.3-4.3c-2.1-0.6-4.3,0.1-5.8,1.6l-31.5,31.5L280.2,211.7z"/>
</g>
</svg>
